<svg width="15" height="18" viewBox="0 0 15 18" fill="none" xmlns="http://www.w3.org/2000/svg">
<path d="M14.675 2.35005C14.5789 2.18989 14.4187 2.06177 14.2906 1.96567C13.9703 1.70942 13.5859 1.51724 13.2015 1.38911C12.4008 1.0688 11.5359 0.876611 10.6711 0.716455C9.61404 0.556299 8.55701 0.492236 7.43591 0.460205C6.44295 0.460205 5.38592 0.524267 4.36092 0.684423C3.6242 0.812548 2.88748 0.940674 2.18279 1.19692C1.70232 1.35708 1.25389 1.54927 0.837479 1.83755C0.645292 1.96567 0.453104 2.12583 0.324979 2.31802C0.132791 2.54224 0.0687297 2.83052 0.100761 3.1188C0.196855 3.69536 0.292948 4.30395 0.389041 4.88052C0.517166 5.74536 0.677323 6.6102 0.837479 7.47505C0.997635 8.43598 1.15779 9.39692 1.31795 10.3579C1.34998 10.5821 1.44607 10.7743 1.60623 10.9344C1.70232 11.0305 1.79842 11.1266 1.92654 11.2227C2.31092 11.543 2.75935 11.7672 3.23982 11.9594C4.36092 12.4079 5.51404 12.6 6.73123 12.6641C7.59607 12.7282 8.46091 12.6961 9.32576 12.568C10.0625 12.4719 10.7672 12.3118 11.4719 12.0555C11.9844 11.8633 12.4969 11.6391 12.9453 11.3188C13.1375 11.1907 13.2976 11.0305 13.4578 10.8383C13.5539 10.7102 13.6179 10.5821 13.65 10.4219C13.8742 9.1727 14.0984 7.92348 14.2906 6.64223C14.4828 5.48911 14.675 4.30395 14.8672 3.15083C14.8992 2.79849 14.8351 2.57427 14.675 2.35005ZM7.49998 10.9985C6.21873 10.9985 5.1617 9.94145 5.1617 8.6602C5.1617 7.37895 6.21873 6.32192 7.49998 6.32192C8.81326 6.32192 9.83826 7.37895 9.83826 8.69223C9.83826 9.97348 8.78123 10.9985 7.49998 10.9985ZM12.1765 2.83052C12.1125 2.89458 12.0164 2.95864 11.9523 3.0227C11.6961 3.15083 11.4398 3.24692 11.1836 3.31099C10.6711 3.43911 10.1586 3.50317 9.61404 3.56723C8.94138 3.6313 8.2367 3.66333 7.56404 3.66333C6.76326 3.66333 5.99451 3.6313 5.22576 3.5352C4.6492 3.47114 4.07263 3.37505 3.5281 3.18286C3.36795 3.1188 3.20779 3.05474 3.04763 2.99067C2.98357 2.95864 2.88748 2.89458 2.85545 2.83052C2.75935 2.70239 2.75935 2.57427 2.85545 2.47817C2.91951 2.41411 2.98357 2.35005 3.07967 2.31802C3.30388 2.18989 3.56013 2.0938 3.81638 2.02974C4.32888 1.90161 4.87342 1.80552 5.41795 1.74145C6.31482 1.64536 7.17967 1.61333 8.07654 1.64536C8.90935 1.67739 9.71013 1.74145 10.5109 1.86958C10.8953 1.93364 11.2797 2.02974 11.632 2.15786C11.7601 2.22192 11.8883 2.28599 11.9844 2.35005C12.0484 2.38208 12.0804 2.44614 12.1445 2.47817C12.2406 2.6063 12.2406 2.73442 12.1765 2.83052ZM13.0414 12.6641C13.0414 12.6961 13.0414 12.7602 13.0414 12.8243C12.8812 13.6891 12.7211 14.554 12.5609 15.4188C12.4969 15.7071 12.3687 15.9633 12.1765 16.1555C11.9523 16.3797 11.6961 16.5719 11.4078 16.7C10.8953 16.9563 10.3187 17.1485 9.74216 17.2446C9.00545 17.4047 8.26873 17.4688 7.82029 17.4688C6.53904 17.4688 5.5781 17.3727 4.6492 17.0844C4.23279 16.9563 3.81638 16.7961 3.39998 16.5719C3.20779 16.4438 3.0156 16.3157 2.85545 16.1555C2.63123 15.9313 2.5031 15.7071 2.47107 15.4188C2.31092 14.554 2.15076 13.6891 1.9906 12.8243C1.9906 12.7922 1.9906 12.7282 1.9906 12.6961C1.9906 12.4719 2.18279 12.3758 2.37498 12.4719C2.40701 12.4719 2.40701 12.504 2.43904 12.504C3.07967 12.9524 3.78435 13.2727 4.52107 13.4969C5.19373 13.7211 5.89842 13.8493 6.6031 13.9133C7.40388 13.9774 8.2367 13.9774 9.03748 13.8493C10.1265 13.6891 11.1515 13.4008 12.0804 12.8563C12.2726 12.7602 12.4648 12.6321 12.625 12.504C12.657 12.4719 12.689 12.4719 12.7211 12.4399C12.8492 12.3758 13.0414 12.4719 13.0414 12.6641ZM8.68513 8.6602C8.68513 9.30083 8.1406 9.84536 7.49998 9.84536C6.85935 9.84536 6.31482 9.30083 6.34685 8.6602C6.34685 8.01958 6.85935 7.47505 7.53201 7.50708C8.1406 7.47505 8.68513 8.01958 8.68513 8.6602Z" fill="#94A3BC"/>
</svg>
