<svg width="13" height="15" viewBox="0 0 13 15" fill="none" xmlns="http://www.w3.org/2000/svg">
<path d="M11.9963 8.29167H0.799242C0.414343 8.29167 0.0994263 8.64792 0.0994263 9.08333V13.8333C0.0994263 14.2688 0.414343 14.625 0.799242 14.625H11.9963C12.3812 14.625 12.6961 14.2688 12.6961 13.8333V9.08333C12.6961 8.64792 12.3812 8.29167 11.9963 8.29167ZM2.89869 13.0417C2.12889 13.0417 1.49906 12.3292 1.49906 11.4583C1.49906 10.5875 2.12889 9.875 2.89869 9.875C3.66849 9.875 4.29832 10.5875 4.29832 11.4583C4.29832 12.3292 3.66849 13.0417 2.89869 13.0417ZM11.9963 0.375H0.799242C0.414343 0.375 0.0994263 0.73125 0.0994263 1.16667V5.91667C0.0994263 6.35208 0.414343 6.70833 0.799242 6.70833H11.9963C12.3812 6.70833 12.6961 6.35208 12.6961 5.91667V1.16667C12.6961 0.73125 12.3812 0.375 11.9963 0.375ZM2.89869 5.125C2.12889 5.125 1.49906 4.4125 1.49906 3.54167C1.49906 2.67083 2.12889 1.95833 2.89869 1.95833C3.66849 1.95833 4.29832 2.67083 4.29832 3.54167C4.29832 4.4125 3.66849 5.125 2.89869 5.125Z" fill="white"/>
</svg>
